<mxfile host="app.diagrams.net" agent="Mozilla/5.0 (Windows NT 10.0; Win64; x64) AppleWebKit/537.36 (KHTML, like Gecko) Chrome/138.0.0.0 Safari/537.36 Edg/138.0.0.0" version="28.0.9">
  <diagram name="Page-1" id="EeXgC6L7r_IC-r9tDjQ0">
    <mxGraphModel grid="1" page="1" gridSize="10" guides="1" tooltips="1" connect="1" arrows="1" fold="1" pageScale="1" pageWidth="850" pageHeight="1100" math="0" shadow="0">
      <root>
        <mxCell id="0" />
        <mxCell id="1" parent="0" />
        <mxCell id="xbJ5NtxPmlyVWXb6L3Q7-1" value="" style="whiteSpace=wrap;html=1;aspect=fixed;align=left;" vertex="1" parent="1">
          <mxGeometry x="280" y="90" width="240" height="240" as="geometry" />
        </mxCell>
        <mxCell id="xbJ5NtxPmlyVWXb6L3Q7-2" value="" style="endArrow=none;html=1;rounded=0;" edge="1" parent="1">
          <mxGeometry width="50" height="50" relative="1" as="geometry">
            <mxPoint x="330" y="130" as="sourcePoint" />
            <mxPoint x="400" y="130" as="targetPoint" />
            <Array as="points">
              <mxPoint x="280" y="130" />
              <mxPoint x="520" y="130" />
            </Array>
          </mxGeometry>
        </mxCell>
        <mxCell id="xbJ5NtxPmlyVWXb6L3Q7-3" value="" style="endArrow=none;html=1;rounded=0;" edge="1" parent="1">
          <mxGeometry width="50" height="50" relative="1" as="geometry">
            <mxPoint x="330" y="209.5" as="sourcePoint" />
            <mxPoint x="400" y="209.5" as="targetPoint" />
            <Array as="points">
              <mxPoint x="280" y="209.5" />
              <mxPoint x="520" y="209.5" />
            </Array>
          </mxGeometry>
        </mxCell>
        <mxCell id="xbJ5NtxPmlyVWXb6L3Q7-4" value="&lt;font style=&quot;font-size: 30px;&quot;&gt;Bank&lt;/font&gt;" style="text;html=1;align=left;verticalAlign=middle;whiteSpace=wrap;rounded=0;" vertex="1" parent="1">
          <mxGeometry x="280" y="90" width="240" height="40" as="geometry" />
        </mxCell>
        <mxCell id="xbJ5NtxPmlyVWXb6L3Q7-5" value="&lt;span style=&quot;font-size: 30px;&quot;&gt;-name, location&lt;/span&gt;" style="text;whiteSpace=wrap;html=1;" vertex="1" parent="1">
          <mxGeometry x="280" y="130" width="240" height="60" as="geometry" />
        </mxCell>
        <mxCell id="xbJ5NtxPmlyVWXb6L3Q7-6" value="&lt;span style=&quot;font-size: 30px;&quot;&gt;-code&lt;/span&gt;" style="text;whiteSpace=wrap;html=1;" vertex="1" parent="1">
          <mxGeometry x="280" y="160" width="240" height="60" as="geometry" />
        </mxCell>
        <mxCell id="xbJ5NtxPmlyVWXb6L3Q7-7" value="&lt;span style=&quot;font-size: 30px;&quot;&gt;+addBranch()&lt;/span&gt;" style="text;whiteSpace=wrap;html=1;" vertex="1" parent="1">
          <mxGeometry x="280" y="210" width="240" height="60" as="geometry" />
        </mxCell>
        <mxCell id="NUQYVEWyePlqV6hqKBUH-1" value="&lt;span style=&quot;font-size: 30px;&quot;&gt;+removeBranch()&lt;/span&gt;" style="text;whiteSpace=wrap;html=1;" vertex="1" parent="1">
          <mxGeometry x="280" y="250" width="240" height="60" as="geometry" />
        </mxCell>
        <mxCell id="NUQYVEWyePlqV6hqKBUH-3" value="&lt;span style=&quot;font-size: 30px;&quot;&gt;+getBranch()&lt;/span&gt;" style="text;whiteSpace=wrap;html=1;" vertex="1" parent="1">
          <mxGeometry x="280" y="290" width="240" height="60" as="geometry" />
        </mxCell>
        <mxCell id="NUQYVEWyePlqV6hqKBUH-4" value="" style="whiteSpace=wrap;html=1;aspect=fixed;align=left;" vertex="1" parent="1">
          <mxGeometry x="659" y="90" width="240" height="240" as="geometry" />
        </mxCell>
        <mxCell id="NUQYVEWyePlqV6hqKBUH-5" value="" style="endArrow=none;html=1;rounded=0;" edge="1" parent="1">
          <mxGeometry width="50" height="50" relative="1" as="geometry">
            <mxPoint x="709" y="130" as="sourcePoint" />
            <mxPoint x="779" y="130" as="targetPoint" />
            <Array as="points">
              <mxPoint x="659" y="130" />
              <mxPoint x="899" y="130" />
            </Array>
          </mxGeometry>
        </mxCell>
        <mxCell id="NUQYVEWyePlqV6hqKBUH-6" value="" style="endArrow=none;html=1;rounded=0;" edge="1" parent="1">
          <mxGeometry width="50" height="50" relative="1" as="geometry">
            <mxPoint x="709" y="209.5" as="sourcePoint" />
            <mxPoint x="779" y="209.5" as="targetPoint" />
            <Array as="points">
              <mxPoint x="659" y="209.5" />
              <mxPoint x="899" y="209.5" />
            </Array>
          </mxGeometry>
        </mxCell>
        <mxCell id="NUQYVEWyePlqV6hqKBUH-8" value="&lt;span style=&quot;font-size: 30px;&quot;&gt;-Branch_code&lt;/span&gt;" style="text;whiteSpace=wrap;html=1;" vertex="1" parent="1">
          <mxGeometry x="659" y="130" width="240" height="60" as="geometry" />
        </mxCell>
        <mxCell id="NUQYVEWyePlqV6hqKBUH-9" value="&lt;span style=&quot;font-size: 30px;&quot;&gt;-city&lt;/span&gt;" style="text;whiteSpace=wrap;html=1;" vertex="1" parent="1">
          <mxGeometry x="659" y="160" width="240" height="60" as="geometry" />
        </mxCell>
        <mxCell id="NUQYVEWyePlqV6hqKBUH-10" value="&lt;span style=&quot;font-size: 30px;&quot;&gt;+addAccount()&lt;/span&gt;" style="text;whiteSpace=wrap;html=1;" vertex="1" parent="1">
          <mxGeometry x="659" y="210" width="240" height="60" as="geometry" />
        </mxCell>
        <mxCell id="NUQYVEWyePlqV6hqKBUH-11" value="&lt;span style=&quot;font-size: 30px;&quot;&gt;+remAccount()&lt;/span&gt;" style="text;whiteSpace=wrap;html=1;" vertex="1" parent="1">
          <mxGeometry x="659" y="250" width="240" height="60" as="geometry" />
        </mxCell>
        <mxCell id="NUQYVEWyePlqV6hqKBUH-13" value="&lt;span style=&quot;font-size: 30px;&quot;&gt;Branch&lt;/span&gt;" style="text;html=1;align=left;verticalAlign=middle;whiteSpace=wrap;rounded=0;" vertex="1" parent="1">
          <mxGeometry x="659" y="90" width="240" height="40" as="geometry" />
        </mxCell>
        <mxCell id="NUQYVEWyePlqV6hqKBUH-14" value="" style="whiteSpace=wrap;html=1;aspect=fixed;align=left;" vertex="1" parent="1">
          <mxGeometry x="1036" y="90" width="240" height="240" as="geometry" />
        </mxCell>
        <mxCell id="NUQYVEWyePlqV6hqKBUH-15" value="" style="endArrow=none;html=1;rounded=0;" edge="1" parent="1">
          <mxGeometry width="50" height="50" relative="1" as="geometry">
            <mxPoint x="1086" y="130" as="sourcePoint" />
            <mxPoint x="1156" y="130" as="targetPoint" />
            <Array as="points">
              <mxPoint x="1036" y="130" />
              <mxPoint x="1276" y="130" />
            </Array>
          </mxGeometry>
        </mxCell>
        <mxCell id="NUQYVEWyePlqV6hqKBUH-16" value="" style="endArrow=none;html=1;rounded=0;" edge="1" parent="1">
          <mxGeometry width="50" height="50" relative="1" as="geometry">
            <mxPoint x="1086" y="209.5" as="sourcePoint" />
            <mxPoint x="1156" y="209.5" as="targetPoint" />
            <Array as="points">
              <mxPoint x="1036" y="209.5" />
              <mxPoint x="1276" y="209.5" />
            </Array>
          </mxGeometry>
        </mxCell>
        <mxCell id="NUQYVEWyePlqV6hqKBUH-17" value="&lt;span style=&quot;font-size: 30px;&quot;&gt;Account&lt;/span&gt;" style="text;html=1;align=left;verticalAlign=middle;whiteSpace=wrap;rounded=0;" vertex="1" parent="1">
          <mxGeometry x="1036" y="90" width="240" height="40" as="geometry" />
        </mxCell>
        <mxCell id="NUQYVEWyePlqV6hqKBUH-18" value="&lt;span style=&quot;font-size: 30px;&quot;&gt;-AccountMember&lt;/span&gt;" style="text;whiteSpace=wrap;html=1;" vertex="1" parent="1">
          <mxGeometry x="1036" y="130" width="240" height="60" as="geometry" />
        </mxCell>
        <mxCell id="NUQYVEWyePlqV6hqKBUH-19" value="&lt;span style=&quot;font-size: 30px;&quot;&gt;-Balance&lt;/span&gt;" style="text;whiteSpace=wrap;html=1;" vertex="1" parent="1">
          <mxGeometry x="1036" y="160" width="240" height="60" as="geometry" />
        </mxCell>
        <mxCell id="NUQYVEWyePlqV6hqKBUH-20" value="&lt;span style=&quot;font-size: 30px;&quot;&gt;+deposit()&lt;/span&gt;" style="text;whiteSpace=wrap;html=1;" vertex="1" parent="1">
          <mxGeometry x="1036" y="210" width="240" height="60" as="geometry" />
        </mxCell>
        <mxCell id="NUQYVEWyePlqV6hqKBUH-21" value="&lt;span style=&quot;font-size: 30px;&quot;&gt;+withdraw()&lt;/span&gt;" style="text;whiteSpace=wrap;html=1;" vertex="1" parent="1">
          <mxGeometry x="1036" y="250" width="240" height="60" as="geometry" />
        </mxCell>
        <mxCell id="NUQYVEWyePlqV6hqKBUH-22" value="&lt;span style=&quot;font-size: 30px;&quot;&gt;+addLoan()&lt;/span&gt;" style="text;whiteSpace=wrap;html=1;" vertex="1" parent="1">
          <mxGeometry x="1036" y="290" width="240" height="60" as="geometry" />
        </mxCell>
        <mxCell id="NUQYVEWyePlqV6hqKBUH-23" value="" style="whiteSpace=wrap;html=1;aspect=fixed;align=left;" vertex="1" parent="1">
          <mxGeometry x="281" y="452" width="240" height="240" as="geometry" />
        </mxCell>
        <mxCell id="NUQYVEWyePlqV6hqKBUH-24" value="" style="endArrow=none;html=1;rounded=0;" edge="1" parent="1">
          <mxGeometry width="50" height="50" relative="1" as="geometry">
            <mxPoint x="331" y="492" as="sourcePoint" />
            <mxPoint x="401" y="492" as="targetPoint" />
            <Array as="points">
              <mxPoint x="281" y="492" />
              <mxPoint x="521" y="492" />
            </Array>
          </mxGeometry>
        </mxCell>
        <mxCell id="NUQYVEWyePlqV6hqKBUH-25" value="" style="endArrow=none;html=1;rounded=0;" edge="1" parent="1">
          <mxGeometry width="50" height="50" relative="1" as="geometry">
            <mxPoint x="331" y="571.5" as="sourcePoint" />
            <mxPoint x="401" y="571.5" as="targetPoint" />
            <Array as="points">
              <mxPoint x="281" y="571.5" />
              <mxPoint x="521" y="571.5" />
            </Array>
          </mxGeometry>
        </mxCell>
        <mxCell id="NUQYVEWyePlqV6hqKBUH-26" value="&lt;span style=&quot;font-size: 30px;&quot;&gt;-loanNo.&lt;/span&gt;" style="text;whiteSpace=wrap;html=1;" vertex="1" parent="1">
          <mxGeometry x="281" y="492" width="240" height="60" as="geometry" />
        </mxCell>
        <mxCell id="NUQYVEWyePlqV6hqKBUH-27" value="&lt;span style=&quot;font-size: 30px;&quot;&gt;-amount&lt;/span&gt;" style="text;whiteSpace=wrap;html=1;" vertex="1" parent="1">
          <mxGeometry x="281" y="522" width="240" height="60" as="geometry" />
        </mxCell>
        <mxCell id="NUQYVEWyePlqV6hqKBUH-28" value="&lt;span style=&quot;font-size: 30px;&quot;&gt;+addCustomer()&lt;/span&gt;" style="text;whiteSpace=wrap;html=1;" vertex="1" parent="1">
          <mxGeometry x="281" y="572" width="240" height="60" as="geometry" />
        </mxCell>
        <mxCell id="NUQYVEWyePlqV6hqKBUH-29" value="&lt;span style=&quot;font-size: 30px;&quot;&gt;+getEMI()&lt;/span&gt;" style="text;whiteSpace=wrap;html=1;" vertex="1" parent="1">
          <mxGeometry x="281" y="612" width="240" height="60" as="geometry" />
        </mxCell>
        <mxCell id="NUQYVEWyePlqV6hqKBUH-30" value="&lt;span style=&quot;font-size: 30px;&quot;&gt;Loan&lt;/span&gt;" style="text;html=1;align=left;verticalAlign=middle;whiteSpace=wrap;rounded=0;" vertex="1" parent="1">
          <mxGeometry x="281" y="452" width="240" height="40" as="geometry" />
        </mxCell>
        <mxCell id="NUQYVEWyePlqV6hqKBUH-31" value="" style="whiteSpace=wrap;html=1;aspect=fixed;align=left;" vertex="1" parent="1">
          <mxGeometry x="659" y="450" width="240" height="240" as="geometry" />
        </mxCell>
        <mxCell id="NUQYVEWyePlqV6hqKBUH-32" value="" style="endArrow=none;html=1;rounded=0;" edge="1" parent="1">
          <mxGeometry width="50" height="50" relative="1" as="geometry">
            <mxPoint x="709" y="490" as="sourcePoint" />
            <mxPoint x="779" y="490" as="targetPoint" />
            <Array as="points">
              <mxPoint x="659" y="490" />
              <mxPoint x="899" y="490" />
            </Array>
          </mxGeometry>
        </mxCell>
        <mxCell id="NUQYVEWyePlqV6hqKBUH-33" value="" style="endArrow=none;html=1;rounded=0;" edge="1" parent="1">
          <mxGeometry width="50" height="50" relative="1" as="geometry">
            <mxPoint x="709" y="569.5" as="sourcePoint" />
            <mxPoint x="779" y="569.5" as="targetPoint" />
            <Array as="points">
              <mxPoint x="659" y="569.5" />
              <mxPoint x="899" y="569.5" />
            </Array>
          </mxGeometry>
        </mxCell>
        <mxCell id="NUQYVEWyePlqV6hqKBUH-34" value="&lt;span style=&quot;font-size: 30px;&quot;&gt;-min_balance&lt;/span&gt;" style="text;whiteSpace=wrap;html=1;" vertex="1" parent="1">
          <mxGeometry x="659" y="490" width="240" height="60" as="geometry" />
        </mxCell>
        <mxCell id="NUQYVEWyePlqV6hqKBUH-35" value="&lt;span style=&quot;font-size: 30px;&quot;&gt;-opening_date&lt;/span&gt;" style="text;whiteSpace=wrap;html=1;" vertex="1" parent="1">
          <mxGeometry x="659" y="520" width="240" height="60" as="geometry" />
        </mxCell>
        <mxCell id="NUQYVEWyePlqV6hqKBUH-36" value="&lt;span style=&quot;font-size: 30px;&quot;&gt;+addCustomer()&lt;/span&gt;" style="text;whiteSpace=wrap;html=1;" vertex="1" parent="1">
          <mxGeometry x="659" y="570" width="240" height="60" as="geometry" />
        </mxCell>
        <mxCell id="NUQYVEWyePlqV6hqKBUH-37" value="&lt;span style=&quot;font-size: 30px;&quot;&gt;+remCustomer()&lt;/span&gt;" style="text;whiteSpace=wrap;html=1;" vertex="1" parent="1">
          <mxGeometry x="659" y="610" width="240" height="60" as="geometry" />
        </mxCell>
        <mxCell id="NUQYVEWyePlqV6hqKBUH-38" value="&lt;span style=&quot;font-size: 30px;&quot;&gt;Saving Account&lt;/span&gt;" style="text;html=1;align=left;verticalAlign=middle;whiteSpace=wrap;rounded=0;" vertex="1" parent="1">
          <mxGeometry x="659" y="450" width="240" height="40" as="geometry" />
        </mxCell>
        <mxCell id="fdkIA_EAN4e3mNxT5vXO-1" value="" style="whiteSpace=wrap;html=1;aspect=fixed;align=left;" vertex="1" parent="1">
          <mxGeometry x="1036" y="452" width="240" height="240" as="geometry" />
        </mxCell>
        <mxCell id="fdkIA_EAN4e3mNxT5vXO-2" value="" style="endArrow=none;html=1;rounded=0;" edge="1" parent="1">
          <mxGeometry width="50" height="50" relative="1" as="geometry">
            <mxPoint x="1086" y="492" as="sourcePoint" />
            <mxPoint x="1156" y="492" as="targetPoint" />
            <Array as="points">
              <mxPoint x="1036" y="492" />
              <mxPoint x="1276" y="492" />
            </Array>
          </mxGeometry>
        </mxCell>
        <mxCell id="fdkIA_EAN4e3mNxT5vXO-3" value="" style="endArrow=none;html=1;rounded=0;" edge="1" parent="1">
          <mxGeometry width="50" height="50" relative="1" as="geometry">
            <mxPoint x="1086" y="571.5" as="sourcePoint" />
            <mxPoint x="1156" y="571.5" as="targetPoint" />
            <Array as="points">
              <mxPoint x="1036" y="571.5" />
              <mxPoint x="1276" y="571.5" />
            </Array>
          </mxGeometry>
        </mxCell>
        <mxCell id="fdkIA_EAN4e3mNxT5vXO-4" value="&lt;span style=&quot;font-size: 30px;&quot;&gt;-int_rate&lt;/span&gt;" style="text;whiteSpace=wrap;html=1;" vertex="1" parent="1">
          <mxGeometry x="1036" y="492" width="240" height="60" as="geometry" />
        </mxCell>
        <mxCell id="fdkIA_EAN4e3mNxT5vXO-5" value="&lt;span style=&quot;font-size: 30px;&quot;&gt;-opening_date&lt;/span&gt;" style="text;whiteSpace=wrap;html=1;" vertex="1" parent="1">
          <mxGeometry x="1036" y="522" width="240" height="60" as="geometry" />
        </mxCell>
        <mxCell id="fdkIA_EAN4e3mNxT5vXO-6" value="&lt;span style=&quot;font-size: 30px;&quot;&gt;+addCustomer()&lt;/span&gt;" style="text;whiteSpace=wrap;html=1;" vertex="1" parent="1">
          <mxGeometry x="1036" y="572" width="240" height="60" as="geometry" />
        </mxCell>
        <mxCell id="fdkIA_EAN4e3mNxT5vXO-7" value="&lt;span style=&quot;font-size: 30px;&quot;&gt;+remCustomer()&lt;/span&gt;" style="text;whiteSpace=wrap;html=1;" vertex="1" parent="1">
          <mxGeometry x="1036" y="612" width="240" height="60" as="geometry" />
        </mxCell>
        <mxCell id="fdkIA_EAN4e3mNxT5vXO-8" value="&lt;span style=&quot;font-size: 30px;&quot;&gt;Current Account&lt;/span&gt;" style="text;html=1;align=left;verticalAlign=middle;whiteSpace=wrap;rounded=0;" vertex="1" parent="1">
          <mxGeometry x="1036" y="452" width="240" height="40" as="geometry" />
        </mxCell>
        <mxCell id="fdkIA_EAN4e3mNxT5vXO-9" value="" style="whiteSpace=wrap;html=1;aspect=fixed;align=left;" vertex="1" parent="1">
          <mxGeometry x="689" y="804" width="184" height="184" as="geometry" />
        </mxCell>
        <mxCell id="fdkIA_EAN4e3mNxT5vXO-10" value="" style="endArrow=none;html=1;rounded=0;" edge="1" parent="1">
          <mxGeometry width="50" height="50" relative="1" as="geometry">
            <mxPoint x="739" y="844" as="sourcePoint" />
            <mxPoint x="809" y="844" as="targetPoint" />
            <Array as="points">
              <mxPoint x="689" y="844" />
              <mxPoint x="873" y="844" />
            </Array>
          </mxGeometry>
        </mxCell>
        <mxCell id="fdkIA_EAN4e3mNxT5vXO-12" value="&lt;span style=&quot;font-size: 30px;&quot;&gt;-cust_ID&lt;/span&gt;" style="text;whiteSpace=wrap;html=1;" vertex="1" parent="1">
          <mxGeometry x="689" y="850" width="174" height="60" as="geometry" />
        </mxCell>
        <mxCell id="fdkIA_EAN4e3mNxT5vXO-13" value="&lt;span style=&quot;font-size: 30px;&quot;&gt;-name&lt;/span&gt;" style="text;whiteSpace=wrap;html=1;" vertex="1" parent="1">
          <mxGeometry x="689" y="890" width="144" height="60" as="geometry" />
        </mxCell>
        <mxCell id="fdkIA_EAN4e3mNxT5vXO-16" value="&lt;span style=&quot;font-size: 30px;&quot;&gt;Customer&lt;/span&gt;" style="text;html=1;align=left;verticalAlign=middle;whiteSpace=wrap;rounded=0;" vertex="1" parent="1">
          <mxGeometry x="689" y="804" width="134" height="40" as="geometry" />
        </mxCell>
        <mxCell id="fdkIA_EAN4e3mNxT5vXO-17" value="&lt;span style=&quot;font-size: 30px;&quot;&gt;-address&lt;/span&gt;" style="text;whiteSpace=wrap;html=1;" vertex="1" parent="1">
          <mxGeometry x="689" y="928" width="144" height="60" as="geometry" />
        </mxCell>
        <mxCell id="fdkIA_EAN4e3mNxT5vXO-18" value="" style="rhombus;whiteSpace=wrap;html=1;fillColor=#1A3300;fontColor=#ffffff;strokeColor=#6F0000;" vertex="1" parent="1">
          <mxGeometry x="521" y="185" width="50" height="50" as="geometry" />
        </mxCell>
        <mxCell id="fdkIA_EAN4e3mNxT5vXO-19" value="" style="endArrow=none;html=1;rounded=0;" edge="1" parent="1">
          <mxGeometry width="50" height="50" relative="1" as="geometry">
            <mxPoint x="571" y="210" as="sourcePoint" />
            <mxPoint x="658" y="210" as="targetPoint" />
          </mxGeometry>
        </mxCell>
        <mxCell id="fdkIA_EAN4e3mNxT5vXO-20" value="" style="rhombus;whiteSpace=wrap;html=1;" vertex="1" parent="1">
          <mxGeometry x="899" y="185" width="50" height="50" as="geometry" />
        </mxCell>
        <mxCell id="fdkIA_EAN4e3mNxT5vXO-21" value="" style="endArrow=none;html=1;rounded=0;" edge="1" parent="1">
          <mxGeometry width="50" height="50" relative="1" as="geometry">
            <mxPoint x="949" y="210" as="sourcePoint" />
            <mxPoint x="1036" y="210" as="targetPoint" />
          </mxGeometry>
        </mxCell>
        <mxCell id="fdkIA_EAN4e3mNxT5vXO-22" value="" style="triangle;whiteSpace=wrap;html=1;direction=north;" vertex="1" parent="1">
          <mxGeometry x="1126" y="330" width="60" height="50" as="geometry" />
        </mxCell>
        <mxCell id="fdkIA_EAN4e3mNxT5vXO-23" value="" style="endArrow=none;html=1;rounded=0;entryX=0;entryY=0.5;entryDx=0;entryDy=0;" edge="1" parent="1" target="fdkIA_EAN4e3mNxT5vXO-22">
          <mxGeometry width="50" height="50" relative="1" as="geometry">
            <mxPoint x="1156" y="450" as="sourcePoint" />
            <mxPoint x="1168" y="390" as="targetPoint" />
          </mxGeometry>
        </mxCell>
        <mxCell id="fdkIA_EAN4e3mNxT5vXO-24" value="" style="endArrow=none;html=1;rounded=0;" edge="1" parent="1">
          <mxGeometry width="50" height="50" relative="1" as="geometry">
            <mxPoint x="378" y="410" as="sourcePoint" />
            <mxPoint x="1158" y="410" as="targetPoint" />
          </mxGeometry>
        </mxCell>
        <mxCell id="fdkIA_EAN4e3mNxT5vXO-25" value="" style="endArrow=none;html=1;rounded=0;entryX=0;entryY=0.5;entryDx=0;entryDy=0;" edge="1" parent="1">
          <mxGeometry width="50" height="50" relative="1" as="geometry">
            <mxPoint x="778" y="450" as="sourcePoint" />
            <mxPoint x="778" y="410" as="targetPoint" />
          </mxGeometry>
        </mxCell>
        <mxCell id="fdkIA_EAN4e3mNxT5vXO-26" value="" style="endArrow=none;html=1;rounded=0;" edge="1" parent="1">
          <mxGeometry width="50" height="50" relative="1" as="geometry">
            <mxPoint x="378" y="452" as="sourcePoint" />
            <mxPoint x="378" y="410" as="targetPoint" />
          </mxGeometry>
        </mxCell>
        <mxCell id="fdkIA_EAN4e3mNxT5vXO-27" value="" style="endArrow=none;html=1;rounded=0;entryX=0;entryY=0.5;entryDx=0;entryDy=0;" edge="1" parent="1">
          <mxGeometry width="50" height="50" relative="1" as="geometry">
            <mxPoint x="779" y="800" as="sourcePoint" />
            <mxPoint x="778.5699999999999" y="692" as="targetPoint" />
          </mxGeometry>
        </mxCell>
        <mxCell id="fdkIA_EAN4e3mNxT5vXO-28" value="" style="endArrow=none;html=1;rounded=0;entryX=0;entryY=0.5;entryDx=0;entryDy=0;" edge="1" parent="1">
          <mxGeometry width="50" height="50" relative="1" as="geometry">
            <mxPoint x="1168" y="850" as="sourcePoint" />
            <mxPoint x="1168" y="700" as="targetPoint" />
          </mxGeometry>
        </mxCell>
        <mxCell id="fdkIA_EAN4e3mNxT5vXO-29" value="" style="endArrow=none;html=1;rounded=0;exitX=1;exitY=0.25;exitDx=0;exitDy=0;" edge="1" parent="1" source="fdkIA_EAN4e3mNxT5vXO-9">
          <mxGeometry width="50" height="50" relative="1" as="geometry">
            <mxPoint x="938.8695652173915" y="850" as="sourcePoint" />
            <mxPoint x="1168" y="850" as="targetPoint" />
          </mxGeometry>
        </mxCell>
        <mxCell id="fdkIA_EAN4e3mNxT5vXO-30" value="" style="endArrow=none;html=1;rounded=0;exitX=0.443;exitY=1.013;exitDx=0;exitDy=0;exitPerimeter=0;" edge="1" parent="1" source="NUQYVEWyePlqV6hqKBUH-23">
          <mxGeometry width="50" height="50" relative="1" as="geometry">
            <mxPoint x="388.0026315789475" y="699.9999999999995" as="sourcePoint" />
            <mxPoint x="388" y="850" as="targetPoint" />
          </mxGeometry>
        </mxCell>
        <mxCell id="fdkIA_EAN4e3mNxT5vXO-31" value="" style="endArrow=none;html=1;rounded=0;exitX=1;exitY=0.25;exitDx=0;exitDy=0;" edge="1" parent="1">
          <mxGeometry width="50" height="50" relative="1" as="geometry">
            <mxPoint x="688" y="849.0526315789471" as="sourcePoint" />
            <mxPoint x="388" y="850" as="targetPoint" />
          </mxGeometry>
        </mxCell>
        <mxCell id="fdkIA_EAN4e3mNxT5vXO-32" value="1" style="text;html=1;align=center;verticalAlign=middle;resizable=0;points=[];autosize=1;strokeColor=none;fillColor=none;fontSize=15;" vertex="1" parent="1">
          <mxGeometry x="531" y="235" width="30" height="30" as="geometry" />
        </mxCell>
        <mxCell id="fdkIA_EAN4e3mNxT5vXO-33" value="*" style="text;html=1;align=center;verticalAlign=middle;resizable=0;points=[];autosize=1;strokeColor=none;fillColor=none;fontStyle=1;fontSize=30;" vertex="1" parent="1">
          <mxGeometry x="623" y="225" width="40" height="50" as="geometry" />
        </mxCell>
        <mxCell id="fdkIA_EAN4e3mNxT5vXO-35" value="*" style="text;html=1;align=center;verticalAlign=middle;resizable=0;points=[];autosize=1;strokeColor=none;fillColor=none;fontStyle=1;fontSize=30;" vertex="1" parent="1">
          <mxGeometry x="996" y="225" width="40" height="50" as="geometry" />
        </mxCell>
        <mxCell id="fdkIA_EAN4e3mNxT5vXO-36" value="*" style="text;html=1;align=center;verticalAlign=middle;resizable=0;points=[];autosize=1;strokeColor=none;fillColor=none;fontStyle=1;fontSize=30;" vertex="1" parent="1">
          <mxGeometry x="348" y="710" width="40" height="50" as="geometry" />
        </mxCell>
        <mxCell id="fdkIA_EAN4e3mNxT5vXO-37" value="0" style="text;html=1;align=center;verticalAlign=middle;resizable=0;points=[];autosize=1;strokeColor=none;fillColor=none;" vertex="1" parent="1">
          <mxGeometry x="288" y="710" width="30" height="30" as="geometry" />
        </mxCell>
        <mxCell id="fdkIA_EAN4e3mNxT5vXO-38" value="0" style="text;html=1;align=center;verticalAlign=middle;resizable=0;points=[];autosize=1;strokeColor=none;fillColor=none;fontSize=18;" vertex="1" parent="1">
          <mxGeometry x="788" y="710" width="30" height="40" as="geometry" />
        </mxCell>
        <mxCell id="fdkIA_EAN4e3mNxT5vXO-39" value="1" style="text;html=1;align=center;verticalAlign=middle;resizable=0;points=[];autosize=1;strokeColor=none;fillColor=none;" vertex="1" parent="1">
          <mxGeometry x="878" y="715" width="30" height="30" as="geometry" />
        </mxCell>
        <mxCell id="fdkIA_EAN4e3mNxT5vXO-40" value="1" style="text;html=1;align=center;verticalAlign=middle;resizable=0;points=[];autosize=1;strokeColor=none;fillColor=none;" vertex="1" parent="1">
          <mxGeometry x="643" y="814" width="30" height="30" as="geometry" />
        </mxCell>
        <mxCell id="fdkIA_EAN4e3mNxT5vXO-41" value="1" style="text;html=1;align=center;verticalAlign=middle;resizable=0;points=[];autosize=1;strokeColor=none;fillColor=none;" vertex="1" parent="1">
          <mxGeometry x="748" y="770" width="30" height="30" as="geometry" />
        </mxCell>
        <mxCell id="fdkIA_EAN4e3mNxT5vXO-42" value="1" style="text;html=1;align=center;verticalAlign=middle;resizable=0;points=[];autosize=1;strokeColor=none;fillColor=none;" vertex="1" parent="1">
          <mxGeometry x="878" y="814" width="30" height="30" as="geometry" />
        </mxCell>
        <mxCell id="fdkIA_EAN4e3mNxT5vXO-43" value="0" style="text;html=1;align=center;verticalAlign=middle;resizable=0;points=[];autosize=1;strokeColor=none;fillColor=none;" vertex="1" parent="1">
          <mxGeometry x="1168" y="710" width="30" height="30" as="geometry" />
        </mxCell>
        <mxCell id="fdkIA_EAN4e3mNxT5vXO-44" value="1" style="text;html=1;align=center;verticalAlign=middle;resizable=0;points=[];autosize=1;strokeColor=none;fillColor=none;" vertex="1" parent="1">
          <mxGeometry x="1246" y="710" width="30" height="30" as="geometry" />
        </mxCell>
        <mxCell id="fdkIA_EAN4e3mNxT5vXO-45" value="0" style="text;html=1;align=center;verticalAlign=middle;resizable=0;points=[];autosize=1;strokeColor=none;fillColor=none;" vertex="1" parent="1">
          <mxGeometry x="928" y="225" width="30" height="30" as="geometry" />
        </mxCell>
      </root>
    </mxGraphModel>
  </diagram>
</mxfile>
